<svg id="Logo" data-name="Logo" xmlns="http://www.w3.org/2000/svg" viewBox="0 0 513.9 135.64"><defs><style>.cls-1{stroke:#fff;stroke-miterlimit:10;stroke-width:5px;}</style></defs><path class="cls-1" d="M50.61,61.89a37.39,37.39,0,0,1,5.17-1.73,26.64,26.64,0,0,1,7.13-1,25.83,25.83,0,0,1,10.5,1.87c2.79,1.25,4.5,3.08,5.1,5.48Q80.14,72.69,81.58,78t2.78,10.2q1.35,4.88,2.62,9.68t2.48,10h.75q1.35-9.15,2.4-17.48t2-16.35q.9-8,1.8-15.9t1.8-16A23.6,23.6,0,0,1,110,39.09a18.51,18.51,0,0,1,9.6,2.4q4,2.4,4,8.1A91.38,91.38,0,0,1,123,59q-.67,6.07-1.8,13.58t-2.62,15.75Q117,96.54,115.41,104T112,117.61a71.69,71.69,0,0,1-3.22,9.38c-1.5,1.4-4,2.55-7.35,3.45A40.91,40.91,0,0,1,91,131.79,33.33,33.33,0,0,1,79,129.91c-3.25-1.25-5.23-3-5.92-5.32q-2-6-4.2-14.25t-4.8-18.15q-2.11,9.75-4.35,19t-4,15.75A17,17,0,0,1,49,130.44a34.35,34.35,0,0,1-9.9,1.35,37.6,37.6,0,0,1-12.23-1.88q-5.47-1.87-7.12-5.32a52,52,0,0,1-2.93-8q-1.58-5.32-3.22-12.15T10.18,89.64q-1.73-8-3.15-15.9T4.41,58.21Q3.2,50.63,2.61,44.34a20.73,20.73,0,0,1,5.85-3.6,19.82,19.82,0,0,1,8.1-1.65,16.45,16.45,0,0,1,9.37,2.47Q29.6,44,30.51,49.89q2.39,15.3,4,25.5T37,92.11q1,6.52,1.43,10.13t.9,5.7h.75c.9-4,1.74-7.7,2.55-11.1S44.28,90,45.13,86.56s1.73-7.15,2.63-11.1S49.6,67,50.61,61.89Z"/><path class="cls-1" d="M157.85,59.64a10.07,10.07,0,0,0-4.42-1.8,35.34,35.34,0,0,0-5.93-.45,40.48,40.48,0,0,0-6.52.52c-2.15.35-3.78.63-4.88.83v61.05a15.88,15.88,0,0,0,1,6.07,8.66,8.66,0,0,0,2.77,3.68,10.11,10.11,0,0,0,4.43,1.8,35.22,35.22,0,0,0,5.92.45,40.61,40.61,0,0,0,6.53-.53c2.15-.35,3.77-.62,4.87-.82v-61a16,16,0,0,0-1-6.08A8.65,8.65,0,0,0,157.85,59.64Z"/><path class="cls-1" d="M239.3,108.84q0,11.4-8.55,17.85t-25.2,6.45a71.28,71.28,0,0,1-11.7-.9,33.44,33.44,0,0,1-9.22-2.78,16.5,16.5,0,0,1-6-4.72,10.81,10.81,0,0,1-2.18-6.75,11.54,11.54,0,0,1,1.5-6.08,15.17,15.17,0,0,1,3.6-4.12,59.87,59.87,0,0,0,10,4.27,41,41,0,0,0,13,1.88,15.18,15.18,0,0,0,7.13-1.35,4,4,0,0,0,2.47-3.6,3.76,3.76,0,0,0-1.8-3.3,16.68,16.68,0,0,0-6-2l-4.5-.9q-13.05-2.55-19.42-8T176,79.14a20.7,20.7,0,0,1,9.15-17.55,33.86,33.86,0,0,1,10.43-4.65A51.12,51.12,0,0,1,209,55.29a62.58,62.58,0,0,1,10.43.82,33.9,33.9,0,0,1,8.47,2.48,15.28,15.28,0,0,1,5.7,4.27,9.67,9.67,0,0,1,2.1,6.23A12.77,12.77,0,0,1,234.43,75a13.34,13.34,0,0,1-3.23,4.13,18.35,18.35,0,0,0-3.6-1.58q-2.4-.82-5.25-1.5t-5.77-1.12a35.34,35.34,0,0,0-5.33-.45,20.59,20.59,0,0,0-7.65,1.12q-2.7,1.13-2.7,3.53a3.17,3.17,0,0,0,1.5,2.7,17.23,17.23,0,0,0,5.7,2l4.65,1q14.4,3.3,20.48,9.07T239.3,108.84Z"/><path class="cls-1" d="M323.6,130.44a34.66,34.66,0,0,1-4.72.9,48.34,48.34,0,0,1-6.68.45,35.22,35.22,0,0,1-5.92-.45,10.11,10.11,0,0,1-4.43-1.8,8.66,8.66,0,0,1-2.77-3.68,15.88,15.88,0,0,1-1-6.07V86.49q0-6.15-3.07-8.63a11.71,11.71,0,0,0-7.58-2.47,21.21,21.21,0,0,0-5.7.75,16.28,16.28,0,0,0-4.35,1.8v52.5a34.66,34.66,0,0,1-4.72.9,48.34,48.34,0,0,1-6.68.45,35.22,35.22,0,0,1-5.92-.45,10.11,10.11,0,0,1-4.43-1.8,8.66,8.66,0,0,1-2.77-3.68,15.88,15.88,0,0,1-1-6.07v-87c1.1-.2,2.73-.48,4.88-.83a40.48,40.48,0,0,1,6.52-.52,35.34,35.34,0,0,1,5.93.45,10.07,10.07,0,0,1,4.42,1.8,8.65,8.65,0,0,1,2.78,3.67,16,16,0,0,1,1,6.08v14.7a53,53,0,0,1,5.93-1.73,36.8,36.8,0,0,1,8.77-1q14.85,0,23.18,7.42T323.6,85Z"/><path class="cls-1" d="M365.3,130.44c-1.1.2-2.72.47-4.87.82a40.61,40.61,0,0,1-6.53.53,35.13,35.13,0,0,1-5.92-.45,10.11,10.11,0,0,1-4.43-1.8,8.66,8.66,0,0,1-2.77-3.68,15.69,15.69,0,0,1-1-6.07v-87c1.1-.2,2.72-.48,4.88-.83a40.48,40.48,0,0,1,6.52-.52,35.43,35.43,0,0,1,5.93.45,10.12,10.12,0,0,1,4.42,1.8,8.73,8.73,0,0,1,2.78,3.67,16.15,16.15,0,0,1,1,6.08Z"/><path class="cls-1" d="M419.9,133a52.52,52.52,0,0,1-16.42-2.48,37.12,37.12,0,0,1-13.2-7.42,34.39,34.39,0,0,1-8.85-12.45,44,44,0,0,1-3.23-17.55,40.91,40.91,0,0,1,3.23-17A32.92,32.92,0,0,1,401.9,57.61a44.72,44.72,0,0,1,13.8-2.17,41.69,41.69,0,0,1,14.48,2.4,34.82,34.82,0,0,1,11.25,6.6,29.37,29.37,0,0,1,7.35,10,30.94,30.94,0,0,1,2.62,12.75q0,5.1-2.85,7.8a14.25,14.25,0,0,1-7.95,3.45L403.55,104a12.45,12.45,0,0,0,6.75,7.42,26.48,26.48,0,0,0,11.7,2.48,42,42,0,0,0,11.63-1.58,36.92,36.92,0,0,0,8.92-3.67,12.56,12.56,0,0,1,4.05,4.2,10.76,10.76,0,0,1,1.65,5.7q0,6.75-6.3,10a33.4,33.4,0,0,1-10.8,3.45A76.06,76.06,0,0,1,419.9,133ZM415.7,74a14.81,14.81,0,0,0-6.22,1.2,12.45,12.45,0,0,0-4.28,3.07,12.59,12.59,0,0,0-2.47,4.2,17,17,0,0,0-1,4.73L427.4,83a11.34,11.34,0,0,0-3.3-6Q421.25,74,415.7,74Z"/><path class="cls-1" d="M489.2,105.54q0,3.9,2.48,5.55a12.49,12.49,0,0,0,7,1.65,30.14,30.14,0,0,0,4.65-.38,26.17,26.17,0,0,0,4.2-1,18.77,18.77,0,0,1,2.33,3.67,11.32,11.32,0,0,1,1,4.88,11.62,11.62,0,0,1-4.27,9.3q-4.27,3.6-15.08,3.6-13.2,0-20.33-6T464,107.34V43.14c1.1-.3,2.67-.63,4.73-1a38.63,38.63,0,0,1,6.52-.52q6.6,0,10.28,2.32t3.67,9.83v9.6h19.65a26.51,26.51,0,0,1,1.73,4.12A17.56,17.56,0,0,1,511.4,73c0,3.5-.78,6-2.32,7.57a8.44,8.44,0,0,1-6.23,2.33H489.2Z"/><polygon class="cls-1" points="162.85 46.44 149.23 39.83 136.06 47.31 138.13 32.31 126.95 22.1 141.85 19.44 148.11 5.65 155.25 19 170.3 20.68 159.81 31.6 162.85 46.44"/></svg>